<svg version="1.1" id="Layer_1" xmlns="http://www.w3.org/2000/svg" xmlns:xlink="http://www.w3.org/1999/xlink" x="0px" y="0px"
	 width="100%" viewBox="0 0 881 881" enable-background="new 0 0 881 881" xml:space="preserve">
<path fill="#010000" opacity="1.000000" stroke="none" 
	d="
M467.000000,882.000000 
	C311.333344,882.000000 156.166672,882.000000 1.000000,882.000000 
	C1.000000,588.333313 1.000000,294.666656 1.000000,1.000000 
	C294.666656,1.000000 588.333313,1.000000 882.000000,1.000000 
	C882.000000,294.666656 882.000000,588.333313 882.000000,882.000000 
	C743.833313,882.000000 605.666687,882.000000 467.000000,882.000000 
M401.268494,785.397034 
	C401.752502,785.512939 402.236481,785.628906 402.720490,785.744812 
	C402.751648,785.590027 402.782806,785.435242 402.813965,785.280396 
	C402.181946,785.207397 401.549957,785.134399 400.726288,784.408142 
	C390.996002,777.079712 381.265717,769.751343 371.461029,762.366882 
	C367.742981,765.157715 363.058807,768.673767 358.047699,772.435120 
	C361.176147,773.598694 363.762390,774.771118 366.464844,775.528992 
	C377.951904,778.749878 389.473419,781.847900 401.268494,785.397034 
M586.688538,716.870422 
	C601.936646,699.811462 615.965942,681.851196 625.330078,660.806946 
	C629.430603,651.591492 633.737244,642.085999 635.412781,632.278625 
	C637.154419,622.083984 635.838623,611.365845 635.847351,600.876587 
	C635.856018,590.387207 635.849243,579.897766 635.849243,569.408386 
	C627.645264,599.219910 609.776428,620.650024 581.474060,633.467773 
	C591.201599,649.853210 593.221375,667.286438 590.889709,685.360840 
	C589.531982,695.885132 587.531128,706.326416 585.335693,716.976624 
	C585.358032,717.228271 585.380432,717.479919 585.402710,717.731567 
	C585.611633,717.498413 585.820496,717.265320 586.688538,716.870422 
M637.580139,290.448914 
	C638.040161,287.360138 638.500183,284.271362 638.964661,281.152802 
	C637.180359,280.379761 635.661255,279.725220 634.144958,279.064117 
	C614.250488,270.390137 598.442383,256.943207 586.614136,238.723190 
	C579.663940,228.017181 575.459595,216.200409 572.018066,203.250015 
	C571.345154,194.144363 570.515625,185.045898 570.095947,175.928604 
	C569.971985,173.235641 569.330078,171.890656 566.752686,170.784317 
	C535.784180,157.491211 503.408813,150.235733 469.809387,149.243088 
	C445.005157,148.510269 420.141663,148.392990 395.346252,149.232941 
	C378.150391,149.815445 360.707611,150.975876 343.923706,154.494659 
	C269.995575,169.993790 211.982559,209.627457 170.304718,272.659637 
	C149.180679,304.606903 136.109818,339.814728 130.096222,377.941895 
	C329.279297,377.941895 528.216431,377.941895 728.753113,377.941895 
	C724.404480,361.997345 720.347839,346.855530 716.047485,331.783234 
	C715.632141,330.327545 713.830566,329.136169 712.458679,328.106995 
	C705.955017,323.228180 699.118896,318.751648 692.943237,313.495056 
	C690.182251,311.145020 688.214111,310.812897 685.063110,312.086670 
	C671.342773,317.633148 657.541199,322.978851 643.762634,328.380798 
	C639.693237,329.976196 635.602600,331.517090 631.070129,333.256256 
	C633.173218,318.692902 635.165710,304.895813 637.580139,290.448914 
M649.500000,479.998718 
	C681.928223,479.998718 714.356506,479.998718 746.793579,479.998718 
	C746.793579,449.983521 746.793579,420.596436 746.793579,391.233704 
	C534.604248,391.233704 322.768066,391.233704 110.839737,391.233704 
	C110.839737,420.885651 110.839737,450.156860 110.839737,479.609009 
	C158.377182,479.609009 205.684494,479.609009 253.421783,479.609009 
	C250.066757,471.507202 250.479843,464.386993 257.412567,458.972321 
	C264.440155,453.483551 271.362244,455.882843 278.349152,459.637360 
	C289.923767,465.857086 301.604858,471.887787 313.378418,477.721100 
	C316.076965,479.058136 319.332184,479.900757 322.333069,479.906036 
	C390.645172,480.026459 458.958160,479.861359 527.269226,480.157227 
	C536.750000,480.198273 545.090088,478.437378 553.278320,473.671600 
	C563.185608,467.905365 573.573364,462.957397 583.807983,457.763306 
	C590.000916,454.620361 596.067261,454.942200 601.589417,459.336060 
	C606.503967,463.246429 608.065674,469.846130 605.967712,476.591064 
	C605.654541,477.598083 605.439148,478.635529 605.091980,479.998718 
	C619.863037,479.998718 634.181519,479.998718 649.500000,479.998718 
M729.624817,91.036041 
	C725.212769,93.994469 720.604614,96.706581 716.463135,100.004784 
	C714.020874,101.949791 712.168701,102.157410 709.360657,100.957352 
	C694.928223,94.789391 679.792419,93.108047 664.348083,95.230942 
	C627.659546,100.273964 597.925354,128.705490 591.169373,164.841370 
	C584.310181,201.529465 601.083130,238.406281 633.548157,256.452362 
	C642.001587,261.151276 651.481323,264.003906 661.136597,267.970306 
	C659.515076,278.598145 657.746460,290.190643 655.906738,302.248779 
	C669.573181,296.920746 682.665771,291.816437 695.733765,286.721741 
	C696.741455,288.032410 697.456543,288.942444 698.150635,289.868256 
	C721.466980,320.966858 763.751099,328.801300 796.682251,308.122314 
	C829.007568,287.823761 840.168030,245.753448 822.068054,211.683090 
	C820.254944,208.270233 820.293091,206.286179 822.785767,203.127960 
	C844.637024,175.442444 844.058167,136.781540 821.671387,109.500618 
	C799.683777,82.706108 761.447571,74.861694 729.624817,91.036041 
M483.096832,750.550049 
	C486.679596,743.450684 490.434692,736.431091 493.776215,729.219910 
	C495.587769,725.310425 498.317078,723.714294 502.113220,725.242615 
	C505.762299,726.711670 506.610504,729.878784 505.062042,733.540771 
	C503.121063,738.130920 500.972443,742.646118 499.314941,747.335632 
	C498.788055,748.826416 498.889496,751.319641 499.814331,752.422852 
	C509.371918,763.823303 526.903198,767.429504 540.336548,760.950806 
	C553.200073,754.747009 560.817871,743.749756 566.758789,731.398804 
	C574.821960,714.635620 577.725342,696.602783 579.137817,678.270325 
	C580.142273,665.233826 578.301697,652.761108 571.664307,641.195496 
	C569.951233,638.210510 568.068359,637.562012 564.802490,638.190674 
	C512.646667,648.229675 464.609283,613.567688 457.801056,561.087219 
	C457.076721,555.503601 457.848846,549.339905 451.779541,545.815369 
	C451.151764,545.450806 451.061859,544.220825 450.446808,543.761292 
	C449.051300,542.718750 447.505524,541.166931 445.982880,541.122498 
	C437.327515,540.870056 428.660980,540.979797 419.998352,541.007080 
	C414.257202,541.025208 407.755463,539.322571 405.408661,547.310608 
	C405.246338,547.863098 404.332397,548.156433 404.029114,548.712646 
	C402.997711,550.604309 401.343384,552.518250 401.232391,554.496887 
	C398.362946,605.669067 354.458069,644.079102 303.510773,639.828735 
	C291.609009,638.835815 291.047913,639.159119 287.206573,650.512024 
	C286.250977,653.336243 285.427155,656.250671 284.968872,659.190125 
	C281.869568,679.068787 285.501556,698.333008 291.005463,717.279175 
	C294.994080,731.009277 301.409058,743.583374 312.007233,753.584839 
	C327.297394,768.014160 348.705078,767.649475 362.971344,752.968201 
	C365.110779,750.766541 365.287506,749.075745 363.995575,746.442749 
	C361.875641,742.122498 360.007690,737.658142 358.348999,733.138794 
	C357.127045,729.809387 357.854401,726.624756 361.416809,725.226318 
	C365.012512,723.814880 367.959686,725.059387 369.554626,728.769287 
	C370.144348,730.141113 370.606903,731.567200 371.149841,732.959778 
	C375.497467,744.111328 381.602509,754.032471 390.543732,762.206848 
	C406.526123,776.818542 424.935303,783.070618 446.180969,777.695679 
	C461.660248,773.779480 472.936279,763.324341 483.096832,750.550049 
M256.486298,589.987610 
	C274.741150,614.232544 303.347534,623.759216 331.700684,615.036072 
	C358.569214,606.769653 376.903015,582.253418 378.543762,552.591736 
	C378.776001,548.393372 377.826111,545.760620 373.605469,543.613647 
	C341.961029,527.516418 310.453186,511.149048 278.999725,494.680756 
	C276.080994,493.152557 274.300812,493.759674 271.970856,495.418915 
	C242.007401,516.757263 235.074753,557.584839 256.486298,589.987610 
M614.004089,542.541565 
	C611.566223,523.247742 602.504028,507.812042 587.126282,495.945831 
	C584.210693,493.696045 581.997803,493.225647 578.402466,495.114594 
	C546.830933,511.702026 515.125977,528.036377 483.396759,544.321411 
	C480.829712,545.638916 479.918060,547.120667 479.853241,549.969238 
	C478.867493,593.319824 520.282593,626.427856 562.480896,616.430664 
	C593.113770,609.173401 617.803406,579.474976 614.004089,542.541565 
M713.198303,538.145203 
	C717.014404,538.434753 720.976501,538.202698 724.590454,539.214355 
	C726.673157,539.797302 729.362854,542.221313 729.638855,544.126648 
	C729.917480,546.050171 727.746338,548.509399 726.250366,550.422668 
	C725.627014,551.219971 723.973694,551.211975 722.667114,551.606873 
	C723.448120,553.950623 724.266541,555.964111 724.775452,558.053040 
	C725.324951,560.309021 725.810791,562.623169 725.936890,564.933105 
	C727.380066,591.359131 721.504578,616.053772 706.196167,637.700928 
	C700.124023,646.287231 701.885803,654.784546 701.470886,664.015198 
	C702.584167,663.568542 703.081604,663.471252 703.456421,663.202759 
	C707.515747,660.295654 711.677979,657.515198 715.581238,654.410034 
	C741.680054,633.648010 760.832031,608.507690 765.598083,574.398865 
	C767.429749,561.290222 766.795166,548.866577 759.597473,536.878906 
	C751.738037,523.788940 745.107178,509.944641 738.309937,496.246002 
	C736.695129,492.991882 734.919312,492.072571 731.509216,492.082733 
	C695.190796,492.191132 658.872009,492.150055 622.553284,492.150055 
	C621.141663,492.150055 619.729980,492.150055 617.197815,492.150055 
	C627.223572,505.161346 633.300110,518.809021 636.113220,533.758301 
	C661.778870,535.221985 687.018738,536.661438 713.198303,538.145203 
M134.344742,538.527466 
	C135.002319,538.422485 135.656631,538.257019 136.317947,538.221313 
	C163.405334,536.758179 190.490707,535.252625 217.584747,533.924133 
	C220.873413,533.762817 222.516708,533.142700 223.281570,529.448853 
	C225.807770,517.248779 230.930664,506.097565 238.301056,496.008728 
	C239.095184,494.921631 239.728531,493.717041 240.693451,492.149445 
	C201.576782,492.149445 163.259354,492.112244 124.942772,492.276672 
	C123.300888,492.283691 120.930710,493.756592 120.143791,495.216980 
	C112.651039,509.122223 105.462349,523.190857 98.110832,537.172852 
	C94.696159,543.667297 91.196609,550.069214 91.130112,557.723328 
	C90.999794,572.723328 93.483200,587.225891 99.362404,601.050354 
	C110.218811,626.578369 128.852066,645.444092 151.180252,661.094604 
	C152.598679,662.088867 154.078735,662.995056 156.153275,664.348938 
	C156.153275,658.595032 156.404037,653.765625 156.050339,648.980957 
	C155.866043,646.487976 155.151169,643.709167 153.767075,641.679138 
	C134.923309,614.041565 127.205467,584.144287 134.368103,550.698730 
	C130.998108,550.319092 127.607193,549.057129 127.751205,544.295166 
	C127.859459,540.715698 130.008286,538.924072 134.344742,538.527466 
M209.886688,574.500000 
	C209.886688,565.220215 209.886688,555.940430 209.886688,546.299011 
	C207.170425,546.299011 205.048630,546.200623 202.938492,546.315857 
	C193.144119,546.850403 183.358627,547.643005 173.557983,547.920776 
	C169.528915,548.034973 168.174377,549.184204 168.188461,553.376343 
	C168.332993,596.358887 168.273361,639.342041 168.291626,682.325073 
	C168.292282,683.858215 168.509628,685.391296 168.671066,687.518372 
	C182.687805,680.084534 196.108093,680.787598 209.886536,687.421326 
	C209.886536,649.444275 209.886536,612.472107 209.886688,574.500000 
M650.683044,546.825378 
	C646.868774,546.633301 648.047729,549.550903 648.045349,551.393311 
	C647.988281,595.692688 647.998901,639.992126 648.013000,684.291565 
	C648.013306,685.335571 648.194153,686.379578 648.209717,686.548096 
	C655.370178,685.110229 662.139587,682.682800 668.904724,682.694580 
	C675.584961,682.706238 682.260803,685.184326 688.768433,686.544800 
	C688.768433,641.033813 688.768433,595.143127 688.768433,548.702820 
	C676.182861,548.080811 663.915466,547.474487 650.683044,546.825378 
M244.033218,681.455505 
	C254.085663,697.382446 265.208710,712.424866 279.910187,725.208069 
	C272.736603,694.698425 264.987762,664.734375 280.553925,634.912354 
	C249.034332,621.992859 229.758804,599.212585 222.218613,566.412964 
	C221.997452,582.480591 222.782028,598.507324 221.784561,614.422302 
	C220.711334,631.545715 225.058502,646.950073 232.913147,661.715515 
	C236.345444,668.167725 240.083160,674.457397 244.033218,681.455505 
M389.500000,492.145233 
	C373.991943,492.145233 358.483887,492.145233 342.975861,492.145233 
	C358.331451,501.125916 373.572266,509.688751 389.426208,516.904358 
	C397.431274,520.547668 403.249695,528.503113 412.646454,528.919617 
	C421.627014,529.317688 430.639130,529.004395 439.637360,529.005798 
	C445.490753,529.006714 451.659546,530.155029 455.763702,524.157715 
	C456.260986,523.431091 457.479462,523.196960 458.365082,522.737244 
	C474.753876,514.229675 491.144867,505.726379 507.529877,497.211578 
	C510.311737,495.765900 513.068176,494.271332 517.066284,492.145325 
	C473.815887,492.145325 432.157928,492.145325 389.500000,492.145233 
M668.499695,694.871399 
	C654.643738,695.639465 645.803772,702.781799 645.198364,714.051880 
	C644.342407,729.985962 644.076599,745.960083 642.850647,761.862488 
	C642.203735,770.253601 647.884216,775.332092 655.106445,775.715515 
	C664.067444,776.191162 673.085327,776.113831 682.055664,775.733337 
	C689.599915,775.413391 694.709839,770.256409 694.423584,764.005920 
	C693.648010,747.070801 693.006714,730.123962 691.795715,713.218811 
	C691.541992,709.676636 689.716797,705.790527 687.490417,702.942627 
	C683.043823,697.254639 676.527100,695.139038 668.499695,694.871399 
M171.450211,700.956360 
	C167.568237,704.558594 165.993896,708.993286 165.777908,714.297668 
	C165.135269,730.079468 164.190216,745.849121 163.347549,761.622620 
	C162.944550,769.166382 167.394028,774.766235 174.782318,775.022705 
	C184.261078,775.351746 193.767410,775.331482 203.247635,775.023682 
	C210.141144,774.799866 215.110016,769.939514 214.859711,763.743042 
	C214.175110,746.795593 213.205551,729.859375 212.319824,712.920227 
	C211.896179,704.818481 207.233337,699.671631 200.145172,696.754700 
	C190.163895,692.647156 180.630905,693.624329 171.450211,700.956360 
M736.317688,360.314789 
	C737.234131,365.202850 738.338989,370.065887 738.992493,374.988831 
	C739.352783,377.702484 740.363770,378.556091 743.089478,378.601898 
	C746.946350,378.666687 750.793091,379.333618 755.295837,379.812469 
	C759.175110,366.885223 763.293213,353.161987 767.190002,340.176331 
	C754.629944,339.020630 742.388062,337.894226 730.506653,336.800964 
	C732.302551,344.067322 734.208984,351.780975 736.317688,360.314789 
M487.170502,778.642029 
	C493.030273,776.583557 498.890045,774.525146 505.087067,772.348206 
	C499.775940,768.429016 495.140381,765.008301 491.211121,762.108826 
	C481.898010,769.883118 472.749603,777.519958 463.689850,785.082764 
	C471.064301,783.078918 478.739471,780.993408 487.170502,778.642029 
z"/>
<path fill="#6CB781" opacity="1.000000" stroke="none" 
	d="
M637.158142,291.098694 
	C635.165710,304.895813 633.173218,318.692902 631.070129,333.256256 
	C635.602600,331.517090 639.693237,329.976196 643.762634,328.380798 
	C657.541199,322.978851 671.342773,317.633148 685.063110,312.086670 
	C688.214111,310.812897 690.182251,311.145020 692.943237,313.495056 
	C699.118896,318.751648 705.955017,323.228180 712.458679,328.106995 
	C713.830566,329.136169 715.632141,330.327545 716.047485,331.783234 
	C720.347839,346.855530 724.404480,361.997345 728.753113,377.941895 
	C528.216431,377.941895 329.279297,377.941895 130.096222,377.941895 
	C136.109818,339.814728 149.180679,304.606903 170.304718,272.659637 
	C211.982559,209.627457 269.995575,169.993790 343.923706,154.494659 
	C360.707611,150.975876 378.150391,149.815445 395.346252,149.232941 
	C420.141663,148.392990 445.005157,148.510269 469.809387,149.243088 
	C503.408813,150.235733 535.784180,157.491211 566.752686,170.784317 
	C569.330078,171.890656 569.971985,173.235641 570.095947,175.928604 
	C570.515625,185.045898 571.345154,194.144363 571.575439,203.655106 
	C556.036316,198.695236 541.305359,192.139526 524.364380,188.801544 
	C525.361572,190.953934 525.677185,191.867722 526.172607,192.670593 
	C538.422974,212.524185 551.732239,231.571716 568.430969,248.030914 
	C570.094177,249.670334 571.455017,250.843552 569.915039,253.883926 
	C563.238037,267.066345 556.581482,280.295929 550.808411,293.886810 
	C546.772095,303.388885 544.177917,313.503601 540.939636,323.344666 
	C541.363098,323.641846 541.786560,323.938995 542.210022,324.236176 
	C548.871155,319.643646 555.918518,315.515503 562.113708,310.362793 
	C575.357788,299.347443 588.218811,287.866974 601.085876,276.407562 
	C603.163391,274.557343 604.481323,274.173645 607.043518,275.553772 
	C616.987610,280.910217 627.105164,285.944519 637.158142,291.098694 
z"/>
<path fill="#DB3A59" opacity="1.000000" stroke="none" 
	d="
M649.000000,479.998718 
	C634.181519,479.998718 619.863037,479.998718 605.091980,479.998718 
	C605.439148,478.635529 605.654541,477.598083 605.967712,476.591064 
	C608.065674,469.846130 606.503967,463.246429 601.589417,459.336060 
	C596.067261,454.942200 590.000916,454.620361 583.807983,457.763306 
	C573.573364,462.957397 563.185608,467.905365 553.278320,473.671600 
	C545.090088,478.437378 536.750000,480.198273 527.269226,480.157227 
	C458.958160,479.861359 390.645172,480.026459 322.333069,479.906036 
	C319.332184,479.900757 316.076965,479.058136 313.378418,477.721100 
	C301.604858,471.887787 289.923767,465.857086 278.349152,459.637360 
	C271.362244,455.882843 264.440155,453.483551 257.412567,458.972321 
	C250.479843,464.386993 250.066757,471.507202 253.421783,479.609009 
	C205.684494,479.609009 158.377182,479.609009 110.839737,479.609009 
	C110.839737,450.156860 110.839737,420.885651 110.839737,391.233704 
	C322.768066,391.233704 534.604248,391.233704 746.793579,391.233704 
	C746.793579,420.596436 746.793579,449.983521 746.793579,479.998718 
	C714.356506,479.998718 681.928223,479.998718 649.000000,479.998718 
z"/>
<path fill="#B6E5FE" opacity="1.000000" stroke="none" 
	d="
M729.970581,90.897293 
	C761.447571,74.861694 799.683777,82.706108 821.671387,109.500618 
	C844.058167,136.781540 844.637024,175.442444 822.785767,203.127960 
	C820.293091,206.286179 820.254944,208.270233 822.068054,211.683090 
	C840.168030,245.753448 829.007568,287.823761 796.682251,308.122314 
	C763.751099,328.801300 721.466980,320.966858 698.150635,289.868256 
	C697.456543,288.942444 696.741455,288.032410 695.733765,286.721741 
	C682.665771,291.816437 669.573181,296.920746 655.906738,302.248779 
	C657.746460,290.190643 659.515076,278.598145 661.136597,267.970306 
	C651.481323,264.003906 642.001587,261.151276 633.548157,256.452362 
	C601.083130,238.406281 584.310181,201.529465 591.169373,164.841370 
	C597.925354,128.705490 627.659546,100.273964 664.348083,95.230942 
	C679.792419,93.108047 694.928223,94.789391 709.360657,100.957352 
	C712.168701,102.157410 714.020874,101.949791 716.463135,100.004784 
	C720.604614,96.706581 725.212769,93.994469 729.970581,90.897293 
z"/>
<path fill="#FE592C" opacity="1.000000" stroke="none" 
	d="
M482.891449,750.843994 
	C472.936279,763.324341 461.660248,773.779480 446.180969,777.695679 
	C424.935303,783.070618 406.526123,776.818542 390.543732,762.206848 
	C381.602509,754.032471 375.497467,744.111328 371.149841,732.959778 
	C370.606903,731.567200 370.144348,730.141113 369.554626,728.769287 
	C367.959686,725.059387 365.012512,723.814880 361.416809,725.226318 
	C357.854401,726.624756 357.127045,729.809387 358.348999,733.138794 
	C360.007690,737.658142 361.875641,742.122498 363.995575,746.442749 
	C365.287506,749.075745 365.110779,750.766541 362.971344,752.968201 
	C348.705078,767.649475 327.297394,768.014160 312.007233,753.584839 
	C301.409058,743.583374 294.994080,731.009277 291.005463,717.279175 
	C285.501556,698.333008 281.869568,679.068787 284.968872,659.190125 
	C285.427155,656.250671 286.250977,653.336243 287.206573,650.512024 
	C291.047913,639.159119 291.609009,638.835815 303.510773,639.828735 
	C354.458069,644.079102 398.362946,605.669067 401.232391,554.496887 
	C401.343384,552.518250 402.997711,550.604309 404.029114,548.712646 
	C404.332397,548.156433 405.246338,547.863098 405.408661,547.310608 
	C407.755463,539.322571 414.257202,541.025208 419.998352,541.007080 
	C428.660980,540.979797 437.327515,540.870056 445.982880,541.122498 
	C447.505524,541.166931 449.051300,542.718750 450.446808,543.761292 
	C451.061859,544.220825 451.151764,545.450806 451.779541,545.815369 
	C457.848846,549.339905 457.076721,555.503601 457.801056,561.087219 
	C464.609283,613.567688 512.646667,648.229675 564.802490,638.190674 
	C568.068359,637.562012 569.951233,638.210510 571.664307,641.195496 
	C578.301697,652.761108 580.142273,665.233826 579.137817,678.270325 
	C577.725342,696.602783 574.821960,714.635620 566.758789,731.398804 
	C560.817871,743.749756 553.200073,754.747009 540.336548,760.950806 
	C526.903198,767.429504 509.371918,763.823303 499.814331,752.422852 
	C498.889496,751.319641 498.788055,748.826416 499.314941,747.335632 
	C500.972443,742.646118 503.121063,738.130920 505.062042,733.540771 
	C506.610504,729.878784 505.762299,726.711670 502.113220,725.242615 
	C498.317078,723.714294 495.587769,725.310425 493.776215,729.219910 
	C490.434692,736.431091 486.679596,743.450684 482.891449,750.843994 
M446.391937,600.998291 
	C447.202759,601.168396 448.017242,601.322876 448.823822,601.511169 
	C454.377136,602.807251 457.686615,601.568970 458.692688,597.810059 
	C459.749664,593.860962 457.332428,591.164490 451.510498,589.774109 
	C436.222626,586.123047 420.945801,586.237854 405.673462,589.876038 
	C400.449188,591.120544 398.286713,593.539917 399.004089,597.396790 
	C399.742218,601.365356 403.071350,602.864746 408.515472,601.602112 
	C420.803406,598.752136 433.132904,598.291748 446.391937,600.998291 
z"/>
<path fill="#FEFEFE" opacity="1.000000" stroke="none" 
	d="
M256.280884,589.691040 
	C235.074753,557.584839 242.007401,516.757263 271.970856,495.418915 
	C274.300812,493.759674 276.080994,493.152557 278.999725,494.680756 
	C310.453186,511.149048 341.961029,527.516418 373.605469,543.613647 
	C377.826111,545.760620 378.776001,548.393372 378.543762,552.591736 
	C376.903015,582.253418 358.569214,606.769653 331.700684,615.036072 
	C303.347534,623.759216 274.741150,614.232544 256.280884,589.691040 
z"/>
<path fill="#FEFEFE" opacity="1.000000" stroke="none" 
	d="
M614.036133,542.984009 
	C617.803406,579.474976 593.113770,609.173401 562.480896,616.430664 
	C520.282593,626.427856 478.867493,593.319824 479.853241,549.969238 
	C479.918060,547.120667 480.829712,545.638916 483.396759,544.321411 
	C515.125977,528.036377 546.830933,511.702026 578.402466,495.114594 
	C581.997803,493.225647 584.210693,493.696045 587.126282,495.945831 
	C602.504028,507.812042 611.566223,523.247742 614.036133,542.984009 
z"/>
<path fill="#6BB680" opacity="1.000000" stroke="none" 
	d="
M712.728394,538.123047 
	C687.018738,536.661438 661.778870,535.221985 636.113220,533.758301 
	C633.300110,518.809021 627.223572,505.161346 617.197815,492.150055 
	C619.729980,492.150055 621.141663,492.150055 622.553284,492.150055 
	C658.872009,492.150055 695.190796,492.191132 731.509216,492.082733 
	C734.919312,492.072571 736.695129,492.991882 738.309937,496.246002 
	C745.107178,509.944641 751.738037,523.788940 759.597473,536.878906 
	C766.795166,548.866577 767.429749,561.290222 765.598083,574.398865 
	C760.832031,608.507690 741.680054,633.648010 715.581238,654.410034 
	C711.677979,657.515198 707.515747,660.295654 703.456421,663.202759 
	C703.081604,663.471252 702.584167,663.568542 701.470886,664.015198 
	C701.885803,654.784546 700.124023,646.287231 706.196167,637.700928 
	C721.504578,616.053772 727.380066,591.359131 725.936890,564.933105 
	C725.810791,562.623169 725.324951,560.309021 724.775452,558.053040 
	C724.266541,555.964111 723.448120,553.950623 722.667114,551.606873 
	C723.973694,551.211975 725.627014,551.219971 726.250366,550.422668 
	C727.746338,548.509399 729.917480,546.050171 729.638855,544.126648 
	C729.362854,542.221313 726.673157,539.797302 724.590454,539.214355 
	C720.976501,538.202698 717.014404,538.434753 712.728394,538.123047 
z"/>
<path fill="#6BB580" opacity="1.000000" stroke="none" 
	d="
M133.916595,538.568481 
	C130.008286,538.924072 127.859459,540.715698 127.751205,544.295166 
	C127.607193,549.057129 130.998108,550.319092 134.368103,550.698730 
	C127.205467,584.144287 134.923309,614.041565 153.767075,641.679138 
	C155.151169,643.709167 155.866043,646.487976 156.050339,648.980957 
	C156.404037,653.765625 156.153275,658.595032 156.153275,664.348938 
	C154.078735,662.995056 152.598679,662.088867 151.180252,661.094604 
	C128.852066,645.444092 110.218811,626.578369 99.362404,601.050354 
	C93.483200,587.225891 90.999794,572.723328 91.130112,557.723328 
	C91.196609,550.069214 94.696159,543.667297 98.110832,537.172852 
	C105.462349,523.190857 112.651039,509.122223 120.143791,495.216980 
	C120.930710,493.756592 123.300888,492.283691 124.942772,492.276672 
	C163.259354,492.112244 201.576782,492.149445 240.693451,492.149445 
	C239.728531,493.717041 239.095184,494.921631 238.301056,496.008728 
	C230.930664,506.097565 225.807770,517.248779 223.281570,529.448853 
	C222.516708,533.142700 220.873413,533.762817 217.584747,533.924133 
	C190.490707,535.252625 163.405334,536.758179 136.317947,538.221313 
	C135.656631,538.257019 135.002319,538.422485 133.916595,538.568481 
z"/>
<path fill="#954843" opacity="1.000000" stroke="none" 
	d="
M209.886612,575.000000 
	C209.886536,612.472107 209.886536,649.444275 209.886536,687.421326 
	C196.108093,680.787598 182.687805,680.084534 168.671066,687.518372 
	C168.509628,685.391296 168.292282,683.858215 168.291626,682.325073 
	C168.273361,639.342041 168.332993,596.358887 168.188461,553.376343 
	C168.174377,549.184204 169.528915,548.034973 173.557983,547.920776 
	C183.358627,547.643005 193.144119,546.850403 202.938492,546.315857 
	C205.048630,546.200623 207.170425,546.299011 209.886688,546.299011 
	C209.886688,555.940430 209.886688,565.220215 209.886612,575.000000 
z"/>
<path fill="#984A44" opacity="1.000000" stroke="none" 
	d="
M651.165588,546.846802 
	C663.915466,547.474487 676.182861,548.080811 688.768433,548.702820 
	C688.768433,595.143127 688.768433,641.033813 688.768433,686.544800 
	C682.260803,685.184326 675.584961,682.706238 668.904724,682.694580 
	C662.139587,682.682800 655.370178,685.110229 648.209717,686.548096 
	C648.194153,686.379578 648.013306,685.335571 648.013000,684.291565 
	C647.998901,639.992126 647.988281,595.692688 648.045349,551.393311 
	C648.047729,549.550903 646.868774,546.633301 651.165588,546.846802 
z"/>
<path fill="#B3D9A8" opacity="1.000000" stroke="none" 
	d="
M637.369141,290.773804 
	C627.105164,285.944519 616.987610,280.910217 607.043518,275.553772 
	C604.481323,274.173645 603.163391,274.557343 601.085876,276.407562 
	C588.218811,287.866974 575.357788,299.347443 562.113708,310.362793 
	C555.918518,315.515503 548.871155,319.643646 542.210022,324.236176 
	C541.786560,323.938995 541.363098,323.641846 540.939636,323.344666 
	C544.177917,313.503601 546.772095,303.388885 550.808411,293.886810 
	C556.581482,280.295929 563.238037,267.066345 569.915039,253.883926 
	C571.455017,250.843552 570.094177,249.670334 568.430969,248.030914 
	C551.732239,231.571716 538.422974,212.524185 526.172607,192.670593 
	C525.677185,191.867722 525.361572,190.953934 524.364380,188.801544 
	C541.305359,192.139526 556.036316,198.695236 571.509888,204.073914 
	C575.459595,216.200409 579.663940,228.017181 586.614136,238.723190 
	C598.442383,256.943207 614.250488,270.390137 634.144958,279.064117 
	C635.661255,279.725220 637.180359,280.379761 638.964661,281.152802 
	C638.500183,284.271362 638.040161,287.360138 637.369141,290.773804 
z"/>
<path fill="#FD3227" opacity="1.000000" stroke="none" 
	d="
M243.857697,681.138184 
	C240.083160,674.457397 236.345444,668.167725 232.913147,661.715515 
	C225.058502,646.950073 220.711334,631.545715 221.784561,614.422302 
	C222.782028,598.507324 221.997452,582.480591 222.218613,566.412964 
	C229.758804,599.212585 249.034332,621.992859 280.553925,634.912354 
	C264.987762,664.734375 272.736603,694.698425 279.910187,725.208069 
	C265.208710,712.424866 254.085663,697.382446 243.857697,681.138184 
z"/>
<path fill="#6AB47F" opacity="1.000000" stroke="none" 
	d="
M390.000000,492.145264 
	C432.157928,492.145325 473.815887,492.145325 517.066284,492.145325 
	C513.068176,494.271332 510.311737,495.765900 507.529877,497.211578 
	C491.144867,505.726379 474.753876,514.229675 458.365082,522.737244 
	C457.479462,523.196960 456.260986,523.431091 455.763702,524.157715 
	C451.659546,530.155029 445.490753,529.006714 439.637360,529.005798 
	C430.639130,529.004395 421.627014,529.317688 412.646454,528.919617 
	C403.249695,528.503113 397.431274,520.547668 389.426208,516.904358 
	C373.572266,509.688751 358.331451,501.125916 342.975861,492.145233 
	C358.483887,492.145233 373.991943,492.145233 390.000000,492.145264 
z"/>
<path fill="#DF3B65" opacity="1.000000" stroke="none" 
	d="
M668.952515,694.885620 
	C676.527100,695.139038 683.043823,697.254639 687.490417,702.942627 
	C689.716797,705.790527 691.541992,709.676636 691.795715,713.218811 
	C693.006714,730.123962 693.648010,747.070801 694.423584,764.005920 
	C694.709839,770.256409 689.599915,775.413391 682.055664,775.733337 
	C673.085327,776.113831 664.067444,776.191162 655.106445,775.715515 
	C647.884216,775.332092 642.203735,770.253601 642.850647,761.862488 
	C644.076599,745.960083 644.342407,729.985962 645.198364,714.051880 
	C645.803772,702.781799 654.643738,695.639465 668.952515,694.885620 
z"/>
<path fill="#DF3B66" opacity="1.000000" stroke="none" 
	d="
M171.712433,700.702759 
	C180.630905,693.624329 190.163895,692.647156 200.145172,696.754700 
	C207.233337,699.671631 211.896179,704.818481 212.319824,712.920227 
	C213.205551,729.859375 214.175110,746.795593 214.859711,763.743042 
	C215.110016,769.939514 210.141144,774.799866 203.247635,775.023682 
	C193.767410,775.331482 184.261078,775.351746 174.782318,775.022705 
	C167.394028,774.766235 162.944550,769.166382 163.347549,761.622620 
	C164.190216,745.849121 165.135269,730.079468 165.777908,714.297668 
	C165.993896,708.993286 167.568237,704.558594 171.712433,700.702759 
z"/>
<path fill="#FC3126" opacity="1.000000" stroke="none" 
	d="
M585.819702,716.805054 
	C587.531128,706.326416 589.531982,695.885132 590.889709,685.360840 
	C593.221375,667.286438 591.201599,649.853210 581.474060,633.467773 
	C609.776428,620.650024 627.645264,599.219910 635.849243,569.408386 
	C635.849243,579.897766 635.856018,590.387207 635.847351,600.876587 
	C635.838623,611.365845 637.154419,622.083984 635.412781,632.278625 
	C633.737244,642.085999 629.430603,651.591492 625.330078,660.806946 
	C615.965942,681.851196 601.936646,699.811462 586.306274,716.894775 
	C585.924011,716.919128 585.819702,716.805054 585.819702,716.805054 
z"/>
<path fill="#FBFAFA" opacity="1.000000" stroke="none" 
	d="
M736.216553,359.904724 
	C734.208984,351.780975 732.302551,344.067322 730.506653,336.800964 
	C742.388062,337.894226 754.629944,339.020630 767.190002,340.176331 
	C763.293213,353.161987 759.175110,366.885223 755.295837,379.812469 
	C750.793091,379.333618 746.946350,378.666687 743.089478,378.601898 
	C740.363770,378.556091 739.352783,377.702484 738.992493,374.988831 
	C738.338989,370.065887 737.234131,365.202850 736.216553,359.904724 
z"/>
<path fill="#F63026" opacity="1.000000" stroke="none" 
	d="
M400.982330,784.990723 
	C389.473419,781.847900 377.951904,778.749878 366.464844,775.528992 
	C363.762390,774.771118 361.176147,773.598694 358.047699,772.435120 
	C363.058807,768.673767 367.742981,765.157715 371.461029,762.366882 
	C381.265717,769.751343 390.996002,777.079712 400.841614,784.720093 
	C400.956909,785.032043 400.982330,784.990784 400.982330,784.990723 
z"/>
<path fill="#F53026" opacity="1.000000" stroke="none" 
	d="
M486.792603,778.774902 
	C478.739471,780.993408 471.064301,783.078918 463.689850,785.082764 
	C472.749603,777.519958 481.898010,769.883118 491.211121,762.108826 
	C495.140381,765.008301 499.775940,768.429016 505.087067,772.348206 
	C498.890045,774.525146 493.030273,776.583557 486.792603,778.774902 
z"/>
<path fill="#F63026" opacity="1.000000" stroke="none" 
	d="
M400.937439,785.046753 
	C401.549957,785.134399 402.181946,785.207397 402.813965,785.280396 
	C402.782806,785.435242 402.751648,785.590027 402.720490,785.744812 
	C402.236481,785.628906 401.752502,785.512939 401.125427,785.193909 
	C400.982330,784.990784 400.956909,785.032043 400.937439,785.046753 
z"/>
<path fill="#FC3126" opacity="1.000000" stroke="none" 
	d="
M585.976685,716.975708 
	C585.820496,717.265320 585.611633,717.498413 585.402710,717.731567 
	C585.380432,717.479919 585.358032,717.228271 585.577698,716.890869 
	C585.819702,716.805054 585.924011,716.919128 585.976685,716.975708 
z"/>
<path fill="#080301" opacity="1.000000" stroke="none" 
	d="
M445.958984,600.930542 
	C433.132904,598.291748 420.803406,598.752136 408.515472,601.602112 
	C403.071350,602.864746 399.742218,601.365356 399.004089,597.396790 
	C398.286713,593.539917 400.449188,591.120544 405.673462,589.876038 
	C420.945801,586.237854 436.222626,586.123047 451.510498,589.774109 
	C457.332428,591.164490 459.749664,593.860962 458.692688,597.810059 
	C457.686615,601.568970 454.377136,602.807251 448.823822,601.511169 
	C448.017242,601.322876 447.202759,601.168396 445.958984,600.930542 
z"/>
</svg>